<?xml version="1.0" encoding="utf-8" standalone="no"?>
<!DOCTYPE svg PUBLIC "-//W3C//DTD SVG 1.1//EN"
  "http://www.w3.org/Graphics/SVG/1.1/DTD/svg11.dtd">
<!-- Created with matplotlib (http://matplotlib.org/) -->
<svg height="287pt" version="1.1" viewBox="0 0 401 287" width="401pt" xmlns="http://www.w3.org/2000/svg" xmlns:xlink="http://www.w3.org/1999/xlink">
 <defs>
  <style type="text/css">
*{stroke-linecap:butt;stroke-linejoin:round;}
  </style>
 </defs>
 <g id="figure_1">
  <g id="patch_1">
   <path d="
M5.55112e-17 287.834
L401.957 287.834
L401.957 0
L5.55112e-17 0
z
" style="fill:#ffffff;"/>
  </g>
  <g id="axes_1">
   <g id="patch_2">
    <path d="
M54.4763 246.342
L389.276 246.342
L389.276 23.1418
L54.4763 23.1418
z
" style="fill:#e5e5e5;"/>
   </g>
   <g id="matplotlib.axis_1">
    <g id="xtick_1">
     <g id="line2d_1">
      <path clip-path="url(#p889f02deec)" d="
M54.4763 246.342
L54.4763 23.1418" style="fill:none;stroke:#ffffff;stroke-linecap:square;stroke-width:0.5;"/>
     </g>
     <g id="line2d_2">
      <defs>
       <path d="
M0 0
L0 4" id="m98e6b566c6" style="stroke:#555555;stroke-width:0.5;"/>
      </defs>
      <g>
       <use style="fill:#555555;stroke:#555555;stroke-width:0.5;" x="54.47625" xlink:href="#m98e6b566c6" y="246.34175"/>
      </g>
     </g>
     <g id="line2d_3">
      <defs>
       <path d="
M0 0
L0 -4" id="m4ba1eff96d" style="stroke:#555555;stroke-width:0.5;"/>
      </defs>
      <g>
       <use style="fill:#555555;stroke:#555555;stroke-width:0.5;" x="54.47625" xlink:href="#m4ba1eff96d" y="23.14175"/>
      </g>
     </g>
     <g id="text_1">
      <!-- 0 -->
      <defs>
       <path d="
M31.7812 66.4062
Q24.1719 66.4062 20.3281 58.9062
Q16.5 51.4219 16.5 36.375
Q16.5 21.3906 20.3281 13.8906
Q24.1719 6.39062 31.7812 6.39062
Q39.4531 6.39062 43.2812 13.8906
Q47.125 21.3906 47.125 36.375
Q47.125 51.4219 43.2812 58.9062
Q39.4531 66.4062 31.7812 66.4062
M31.7812 74.2188
Q44.0469 74.2188 50.5156 64.5156
Q56.9844 54.8281 56.9844 36.375
Q56.9844 17.9688 50.5156 8.26562
Q44.0469 -1.42188 31.7812 -1.42188
Q19.5312 -1.42188 13.0625 8.26562
Q6.59375 17.9688 6.59375 36.375
Q6.59375 54.8281 13.0625 64.5156
Q19.5312 74.2188 31.7812 74.2188" id="DejaVuSans-30"/>
      </defs>
      <g style="fill:#555555;" transform="translate(51.95671875 261.9401875)scale(0.1 -0.1)">
       <use xlink:href="#DejaVuSans-30"/>
      </g>
     </g>
    </g>
    <g id="xtick_2">
     <g id="line2d_4">
      <path clip-path="url(#p889f02deec)" d="
M121.436 246.342
L121.436 23.1418" style="fill:none;stroke:#ffffff;stroke-linecap:square;stroke-width:0.5;"/>
     </g>
     <g id="line2d_5">
      <g>
       <use style="fill:#555555;stroke:#555555;stroke-width:0.5;" x="121.43625" xlink:href="#m98e6b566c6" y="246.34175"/>
      </g>
     </g>
     <g id="line2d_6">
      <g>
       <use style="fill:#555555;stroke:#555555;stroke-width:0.5;" x="121.43625" xlink:href="#m4ba1eff96d" y="23.14175"/>
      </g>
     </g>
     <g id="text_2">
      <!-- 2 -->
      <defs>
       <path d="
M19.1875 8.29688
L53.6094 8.29688
L53.6094 0
L7.32812 0
L7.32812 8.29688
Q12.9375 14.1094 22.625 23.8906
Q32.3281 33.6875 34.8125 36.5312
Q39.5469 41.8438 41.4219 45.5312
Q43.3125 49.2188 43.3125 52.7812
Q43.3125 58.5938 39.2344 62.25
Q35.1562 65.9219 28.6094 65.9219
Q23.9688 65.9219 18.8125 64.3125
Q13.6719 62.7031 7.8125 59.4219
L7.8125 69.3906
Q13.7656 71.7812 18.9375 73
Q24.125 74.2188 28.4219 74.2188
Q39.75 74.2188 46.4844 68.5469
Q53.2188 62.8906 53.2188 53.4219
Q53.2188 48.9219 51.5312 44.8906
Q49.8594 40.875 45.4062 35.4062
Q44.1875 33.9844 37.6406 27.2188
Q31.1094 20.4531 19.1875 8.29688" id="DejaVuSans-32"/>
      </defs>
      <g style="fill:#555555;" transform="translate(119.1221875 261.9401875)scale(0.1 -0.1)">
       <use xlink:href="#DejaVuSans-32"/>
      </g>
     </g>
    </g>
    <g id="xtick_3">
     <g id="line2d_7">
      <path clip-path="url(#p889f02deec)" d="
M188.396 246.342
L188.396 23.1418" style="fill:none;stroke:#ffffff;stroke-linecap:square;stroke-width:0.5;"/>
     </g>
     <g id="line2d_8">
      <g>
       <use style="fill:#555555;stroke:#555555;stroke-width:0.5;" x="188.39625" xlink:href="#m98e6b566c6" y="246.34175"/>
      </g>
     </g>
     <g id="line2d_9">
      <g>
       <use style="fill:#555555;stroke:#555555;stroke-width:0.5;" x="188.39625" xlink:href="#m4ba1eff96d" y="23.14175"/>
      </g>
     </g>
     <g id="text_3">
      <!-- 4 -->
      <defs>
       <path d="
M37.7969 64.3125
L12.8906 25.3906
L37.7969 25.3906
z

M35.2031 72.9062
L47.6094 72.9062
L47.6094 25.3906
L58.0156 25.3906
L58.0156 17.1875
L47.6094 17.1875
L47.6094 0
L37.7969 0
L37.7969 17.1875
L4.89062 17.1875
L4.89062 26.7031
z
" id="DejaVuSans-34"/>
      </defs>
      <g style="fill:#555555;" transform="translate(185.74 261.9401875)scale(0.1 -0.1)">
       <use xlink:href="#DejaVuSans-34"/>
      </g>
     </g>
    </g>
    <g id="xtick_4">
     <g id="line2d_10">
      <path clip-path="url(#p889f02deec)" d="
M255.356 246.342
L255.356 23.1418" style="fill:none;stroke:#ffffff;stroke-linecap:square;stroke-width:0.5;"/>
     </g>
     <g id="line2d_11">
      <g>
       <use style="fill:#555555;stroke:#555555;stroke-width:0.5;" x="255.35625" xlink:href="#m98e6b566c6" y="246.34175"/>
      </g>
     </g>
     <g id="line2d_12">
      <g>
       <use style="fill:#555555;stroke:#555555;stroke-width:0.5;" x="255.35625" xlink:href="#m4ba1eff96d" y="23.14175"/>
      </g>
     </g>
     <g id="text_4">
      <!-- 6 -->
      <defs>
       <path d="
M33.0156 40.375
Q26.375 40.375 22.4844 35.8281
Q18.6094 31.2969 18.6094 23.3906
Q18.6094 15.5312 22.4844 10.9531
Q26.375 6.39062 33.0156 6.39062
Q39.6562 6.39062 43.5312 10.9531
Q47.4062 15.5312 47.4062 23.3906
Q47.4062 31.2969 43.5312 35.8281
Q39.6562 40.375 33.0156 40.375
M52.5938 71.2969
L52.5938 62.3125
Q48.875 64.0625 45.0938 64.9844
Q41.3125 65.9219 37.5938 65.9219
Q27.8281 65.9219 22.6719 59.3281
Q17.5312 52.7344 16.7969 39.4062
Q19.6719 43.6562 24.0156 45.9219
Q28.375 48.1875 33.5938 48.1875
Q44.5781 48.1875 50.9531 41.5156
Q57.3281 34.8594 57.3281 23.3906
Q57.3281 12.1562 50.6875 5.35938
Q44.0469 -1.42188 33.0156 -1.42188
Q20.3594 -1.42188 13.6719 8.26562
Q6.98438 17.9688 6.98438 36.375
Q6.98438 53.6562 15.1875 63.9375
Q23.3906 74.2188 37.2031 74.2188
Q40.9219 74.2188 44.7031 73.4844
Q48.4844 72.75 52.5938 71.2969" id="DejaVuSans-36"/>
      </defs>
      <g style="fill:#555555;" transform="translate(252.8390625 261.9401875)scale(0.1 -0.1)">
       <use xlink:href="#DejaVuSans-36"/>
      </g>
     </g>
    </g>
    <g id="xtick_5">
     <g id="line2d_13">
      <path clip-path="url(#p889f02deec)" d="
M322.316 246.342
L322.316 23.1418" style="fill:none;stroke:#ffffff;stroke-linecap:square;stroke-width:0.5;"/>
     </g>
     <g id="line2d_14">
      <g>
       <use style="fill:#555555;stroke:#555555;stroke-width:0.5;" x="322.31625" xlink:href="#m98e6b566c6" y="246.34175"/>
      </g>
     </g>
     <g id="line2d_15">
      <g>
       <use style="fill:#555555;stroke:#555555;stroke-width:0.5;" x="322.31625" xlink:href="#m4ba1eff96d" y="23.14175"/>
      </g>
     </g>
     <g id="text_5">
      <!-- 8 -->
      <defs>
       <path d="
M31.7812 34.625
Q24.75 34.625 20.7188 30.8594
Q16.7031 27.0938 16.7031 20.5156
Q16.7031 13.9219 20.7188 10.1562
Q24.75 6.39062 31.7812 6.39062
Q38.8125 6.39062 42.8594 10.1719
Q46.9219 13.9688 46.9219 20.5156
Q46.9219 27.0938 42.8906 30.8594
Q38.875 34.625 31.7812 34.625
M21.9219 38.8125
Q15.5781 40.375 12.0312 44.7188
Q8.5 49.0781 8.5 55.3281
Q8.5 64.0625 14.7188 69.1406
Q20.9531 74.2188 31.7812 74.2188
Q42.6719 74.2188 48.875 69.1406
Q55.0781 64.0625 55.0781 55.3281
Q55.0781 49.0781 51.5312 44.7188
Q48 40.375 41.7031 38.8125
Q48.8281 37.1562 52.7969 32.3125
Q56.7812 27.4844 56.7812 20.5156
Q56.7812 9.90625 50.3125 4.23438
Q43.8438 -1.42188 31.7812 -1.42188
Q19.7344 -1.42188 13.25 4.23438
Q6.78125 9.90625 6.78125 20.5156
Q6.78125 27.4844 10.7812 32.3125
Q14.7969 37.1562 21.9219 38.8125
M18.3125 54.3906
Q18.3125 48.7344 21.8438 45.5625
Q25.3906 42.3906 31.7812 42.3906
Q38.1406 42.3906 41.7188 45.5625
Q45.3125 48.7344 45.3125 54.3906
Q45.3125 60.0625 41.7188 63.2344
Q38.1406 66.4062 31.7812 66.4062
Q25.3906 66.4062 21.8438 63.2344
Q18.3125 60.0625 18.3125 54.3906" id="DejaVuSans-38"/>
      </defs>
      <g style="fill:#555555;" transform="translate(319.81625 261.9401875)scale(0.1 -0.1)">
       <use xlink:href="#DejaVuSans-38"/>
      </g>
     </g>
    </g>
    <g id="xtick_6">
     <g id="line2d_16">
      <path clip-path="url(#p889f02deec)" d="
M389.276 246.342
L389.276 23.1418" style="fill:none;stroke:#ffffff;stroke-linecap:square;stroke-width:0.5;"/>
     </g>
     <g id="line2d_17">
      <g>
       <use style="fill:#555555;stroke:#555555;stroke-width:0.5;" x="389.27625" xlink:href="#m98e6b566c6" y="246.34175"/>
      </g>
     </g>
     <g id="line2d_18">
      <g>
       <use style="fill:#555555;stroke:#555555;stroke-width:0.5;" x="389.27625" xlink:href="#m4ba1eff96d" y="23.14175"/>
      </g>
     </g>
     <g id="text_6">
      <!-- 10 -->
      <defs>
       <path d="
M12.4062 8.29688
L28.5156 8.29688
L28.5156 63.9219
L10.9844 60.4062
L10.9844 69.3906
L28.4219 72.9062
L38.2812 72.9062
L38.2812 8.29688
L54.3906 8.29688
L54.3906 0
L12.4062 0
z
" id="DejaVuSans-31"/>
      </defs>
      <g style="fill:#555555;" transform="translate(383.795 261.9401875)scale(0.1 -0.1)">
       <use xlink:href="#DejaVuSans-31"/>
       <use x="63.623046875" xlink:href="#DejaVuSans-30"/>
      </g>
     </g>
    </g>
    <g id="text_7">
     <!-- x -->
     <defs>
      <path d="
M54.8906 54.6875
L35.1094 28.0781
L55.9062 0
L45.3125 0
L29.3906 21.4844
L13.4844 0
L2.875 0
L24.125 28.6094
L4.6875 54.6875
L15.2812 54.6875
L29.7812 35.2031
L44.2812 54.6875
z
" id="DejaVuSans-78"/>
     </defs>
     <g style="fill:#555555;" transform="translate(218.694375 278.138)scale(0.12 -0.12)">
      <use xlink:href="#DejaVuSans-78"/>
     </g>
    </g>
   </g>
   <g id="matplotlib.axis_2">
    <g id="ytick_1">
     <g id="line2d_19">
      <path clip-path="url(#p889f02deec)" d="
M54.4763 246.342
L389.276 246.342" style="fill:none;stroke:#ffffff;stroke-linecap:square;stroke-width:0.5;"/>
     </g>
     <g id="line2d_20">
      <defs>
       <path d="
M0 0
L-4 0" id="m5191f13a99" style="stroke:#555555;stroke-width:0.5;"/>
      </defs>
      <g>
       <use style="fill:#555555;stroke:#555555;stroke-width:0.5;" x="54.47625" xlink:href="#m5191f13a99" y="246.34175"/>
      </g>
     </g>
     <g id="line2d_21">
      <defs>
       <path d="
M0 0
L4 0" id="mdd7d7fa58b" style="stroke:#555555;stroke-width:0.5;"/>
      </defs>
      <g>
       <use style="fill:#555555;stroke:#555555;stroke-width:0.5;" x="389.27625" xlink:href="#mdd7d7fa58b" y="246.34175"/>
      </g>
     </g>
     <g id="text_8">
      <!-- −0.8 -->
      <defs>
       <path d="
M10.5938 35.5
L73.1875 35.5
L73.1875 27.2031
L10.5938 27.2031
z
" id="DejaVuSans-2212"/>
       <path d="
M10.6875 12.4062
L21 12.4062
L21 0
L10.6875 0
z
" id="DejaVuSans-2e"/>
      </defs>
      <g style="fill:#555555;" transform="translate(23.9371875 249.101125)scale(0.1 -0.1)">
       <use xlink:href="#DejaVuSans-2212"/>
       <use x="83.7890625" xlink:href="#DejaVuSans-30"/>
       <use x="147.412109375" xlink:href="#DejaVuSans-2e"/>
       <use x="179.19921875" xlink:href="#DejaVuSans-38"/>
      </g>
     </g>
    </g>
    <g id="ytick_2">
     <g id="line2d_22">
      <path clip-path="url(#p889f02deec)" d="
M54.4763 221.542
L389.276 221.542" style="fill:none;stroke:#ffffff;stroke-linecap:square;stroke-width:0.5;"/>
     </g>
     <g id="line2d_23">
      <g>
       <use style="fill:#555555;stroke:#555555;stroke-width:0.5;" x="54.47625" xlink:href="#m5191f13a99" y="221.54175"/>
      </g>
     </g>
     <g id="line2d_24">
      <g>
       <use style="fill:#555555;stroke:#555555;stroke-width:0.5;" x="389.27625" xlink:href="#mdd7d7fa58b" y="221.54175"/>
      </g>
     </g>
     <g id="text_9">
      <!-- −0.6 -->
      <g style="fill:#555555;" transform="translate(23.8825 224.301125)scale(0.1 -0.1)">
       <use xlink:href="#DejaVuSans-2212"/>
       <use x="83.7890625" xlink:href="#DejaVuSans-30"/>
       <use x="147.412109375" xlink:href="#DejaVuSans-2e"/>
       <use x="179.19921875" xlink:href="#DejaVuSans-36"/>
      </g>
     </g>
    </g>
    <g id="ytick_3">
     <g id="line2d_25">
      <path clip-path="url(#p889f02deec)" d="
M54.4763 196.742
L389.276 196.742" style="fill:none;stroke:#ffffff;stroke-linecap:square;stroke-width:0.5;"/>
     </g>
     <g id="line2d_26">
      <g>
       <use style="fill:#555555;stroke:#555555;stroke-width:0.5;" x="54.47625" xlink:href="#m5191f13a99" y="196.74175"/>
      </g>
     </g>
     <g id="line2d_27">
      <g>
       <use style="fill:#555555;stroke:#555555;stroke-width:0.5;" x="389.27625" xlink:href="#mdd7d7fa58b" y="196.74175"/>
      </g>
     </g>
     <g id="text_10">
      <!-- −0.4 -->
      <g style="fill:#555555;" transform="translate(23.81375 199.501125)scale(0.1 -0.1)">
       <use xlink:href="#DejaVuSans-2212"/>
       <use x="83.7890625" xlink:href="#DejaVuSans-30"/>
       <use x="147.412109375" xlink:href="#DejaVuSans-2e"/>
       <use x="179.19921875" xlink:href="#DejaVuSans-34"/>
      </g>
     </g>
    </g>
    <g id="ytick_4">
     <g id="line2d_28">
      <path clip-path="url(#p889f02deec)" d="
M54.4763 171.942
L389.276 171.942" style="fill:none;stroke:#ffffff;stroke-linecap:square;stroke-width:0.5;"/>
     </g>
     <g id="line2d_29">
      <g>
       <use style="fill:#555555;stroke:#555555;stroke-width:0.5;" x="54.47625" xlink:href="#m5191f13a99" y="171.94175"/>
      </g>
     </g>
     <g id="line2d_30">
      <g>
       <use style="fill:#555555;stroke:#555555;stroke-width:0.5;" x="389.27625" xlink:href="#mdd7d7fa58b" y="171.94175"/>
      </g>
     </g>
     <g id="text_11">
      <!-- −0.2 -->
      <g style="fill:#555555;" transform="translate(24.254375 174.701125)scale(0.1 -0.1)">
       <use xlink:href="#DejaVuSans-2212"/>
       <use x="83.7890625" xlink:href="#DejaVuSans-30"/>
       <use x="147.412109375" xlink:href="#DejaVuSans-2e"/>
       <use x="179.19921875" xlink:href="#DejaVuSans-32"/>
      </g>
     </g>
    </g>
    <g id="ytick_5">
     <g id="line2d_31">
      <path clip-path="url(#p889f02deec)" d="
M54.4763 147.142
L389.276 147.142" style="fill:none;stroke:#ffffff;stroke-linecap:square;stroke-width:0.5;"/>
     </g>
     <g id="line2d_32">
      <g>
       <use style="fill:#555555;stroke:#555555;stroke-width:0.5;" x="54.47625" xlink:href="#m5191f13a99" y="147.14175"/>
      </g>
     </g>
     <g id="line2d_33">
      <g>
       <use style="fill:#555555;stroke:#555555;stroke-width:0.5;" x="389.27625" xlink:href="#mdd7d7fa58b" y="147.14175"/>
      </g>
     </g>
     <g id="text_12">
      <!-- 0.0 -->
      <g style="fill:#555555;" transform="translate(31.8965625 149.901125)scale(0.1 -0.1)">
       <use xlink:href="#DejaVuSans-30"/>
       <use x="63.623046875" xlink:href="#DejaVuSans-2e"/>
       <use x="95.41015625" xlink:href="#DejaVuSans-30"/>
      </g>
     </g>
    </g>
    <g id="ytick_6">
     <g id="line2d_34">
      <path clip-path="url(#p889f02deec)" d="
M54.4763 122.342
L389.276 122.342" style="fill:none;stroke:#ffffff;stroke-linecap:square;stroke-width:0.5;"/>
     </g>
     <g id="line2d_35">
      <g>
       <use style="fill:#555555;stroke:#555555;stroke-width:0.5;" x="54.47625" xlink:href="#m5191f13a99" y="122.34175"/>
      </g>
     </g>
     <g id="line2d_36">
      <g>
       <use style="fill:#555555;stroke:#555555;stroke-width:0.5;" x="389.27625" xlink:href="#mdd7d7fa58b" y="122.34175"/>
      </g>
     </g>
     <g id="text_13">
      <!-- 0.2 -->
      <g style="fill:#555555;" transform="translate(32.2340625 125.101125)scale(0.1 -0.1)">
       <use xlink:href="#DejaVuSans-30"/>
       <use x="63.623046875" xlink:href="#DejaVuSans-2e"/>
       <use x="95.41015625" xlink:href="#DejaVuSans-32"/>
      </g>
     </g>
    </g>
    <g id="ytick_7">
     <g id="line2d_37">
      <path clip-path="url(#p889f02deec)" d="
M54.4763 97.5417
L389.276 97.5417" style="fill:none;stroke:#ffffff;stroke-linecap:square;stroke-width:0.5;"/>
     </g>
     <g id="line2d_38">
      <g>
       <use style="fill:#555555;stroke:#555555;stroke-width:0.5;" x="54.47625" xlink:href="#m5191f13a99" y="97.54175"/>
      </g>
     </g>
     <g id="line2d_39">
      <g>
       <use style="fill:#555555;stroke:#555555;stroke-width:0.5;" x="389.27625" xlink:href="#mdd7d7fa58b" y="97.54175"/>
      </g>
     </g>
     <g id="text_14">
      <!-- 0.4 -->
      <g style="fill:#555555;" transform="translate(31.7934375 100.301125)scale(0.1 -0.1)">
       <use xlink:href="#DejaVuSans-30"/>
       <use x="63.623046875" xlink:href="#DejaVuSans-2e"/>
       <use x="95.41015625" xlink:href="#DejaVuSans-34"/>
      </g>
     </g>
    </g>
    <g id="ytick_8">
     <g id="line2d_40">
      <path clip-path="url(#p889f02deec)" d="
M54.4763 72.7417
L389.276 72.7417" style="fill:none;stroke:#ffffff;stroke-linecap:square;stroke-width:0.5;"/>
     </g>
     <g id="line2d_41">
      <g>
       <use style="fill:#555555;stroke:#555555;stroke-width:0.5;" x="54.47625" xlink:href="#m5191f13a99" y="72.74175"/>
      </g>
     </g>
     <g id="line2d_42">
      <g>
       <use style="fill:#555555;stroke:#555555;stroke-width:0.5;" x="389.27625" xlink:href="#mdd7d7fa58b" y="72.74175"/>
      </g>
     </g>
     <g id="text_15">
      <!-- 0.6 -->
      <g style="fill:#555555;" transform="translate(31.8621875 75.501125)scale(0.1 -0.1)">
       <use xlink:href="#DejaVuSans-30"/>
       <use x="63.623046875" xlink:href="#DejaVuSans-2e"/>
       <use x="95.41015625" xlink:href="#DejaVuSans-36"/>
      </g>
     </g>
    </g>
    <g id="ytick_9">
     <g id="line2d_43">
      <path clip-path="url(#p889f02deec)" d="
M54.4763 47.9417
L389.276 47.9417" style="fill:none;stroke:#ffffff;stroke-linecap:square;stroke-width:0.5;"/>
     </g>
     <g id="line2d_44">
      <g>
       <use style="fill:#555555;stroke:#555555;stroke-width:0.5;" x="54.47625" xlink:href="#m5191f13a99" y="47.94175"/>
      </g>
     </g>
     <g id="line2d_45">
      <g>
       <use style="fill:#555555;stroke:#555555;stroke-width:0.5;" x="389.27625" xlink:href="#mdd7d7fa58b" y="47.94175"/>
      </g>
     </g>
     <g id="text_16">
      <!-- 0.8 -->
      <g style="fill:#555555;" transform="translate(31.916875 50.701125)scale(0.1 -0.1)">
       <use xlink:href="#DejaVuSans-30"/>
       <use x="63.623046875" xlink:href="#DejaVuSans-2e"/>
       <use x="95.41015625" xlink:href="#DejaVuSans-38"/>
      </g>
     </g>
    </g>
    <g id="ytick_10">
     <g id="line2d_46">
      <path clip-path="url(#p889f02deec)" d="
M54.4763 23.1417
L389.276 23.1417" style="fill:none;stroke:#ffffff;stroke-linecap:square;stroke-width:0.5;"/>
     </g>
     <g id="line2d_47">
      <g>
       <use style="fill:#555555;stroke:#555555;stroke-width:0.5;" x="54.47625" xlink:href="#m5191f13a99" y="23.14175"/>
      </g>
     </g>
     <g id="line2d_48">
      <g>
       <use style="fill:#555555;stroke:#555555;stroke-width:0.5;" x="389.27625" xlink:href="#mdd7d7fa58b" y="23.14175"/>
      </g>
     </g>
     <g id="text_17">
      <!-- 1.0 -->
      <g style="fill:#555555;" transform="translate(32.335625 25.901125)scale(0.1 -0.1)">
       <use xlink:href="#DejaVuSans-31"/>
       <use x="63.623046875" xlink:href="#DejaVuSans-2e"/>
       <use x="95.41015625" xlink:href="#DejaVuSans-30"/>
      </g>
     </g>
    </g>
    <g id="text_18">
     <!-- y -->
     <defs>
      <path d="
M32.1719 -5.07812
Q28.375 -14.8438 24.75 -17.8125
Q21.1406 -20.7969 15.0938 -20.7969
L7.90625 -20.7969
L7.90625 -13.2812
L13.1875 -13.2812
Q16.8906 -13.2812 18.9375 -11.5156
Q21 -9.76562 23.4844 -3.21875
L25.0938 0.875
L2.98438 54.6875
L12.5 54.6875
L29.5938 11.9219
L46.6875 54.6875
L56.2031 54.6875
z
" id="DejaVuSans-79"/>
     </defs>
     <g style="fill:#555555;" transform="translate(16.318125 137.934875)rotate(-90.0)scale(0.12 -0.12)">
      <use xlink:href="#DejaVuSans-79"/>
     </g>
    </g>
   </g>
   <g id="line2d_49">
    <path clip-path="url(#p889f02deec)" d="
M54.4763 147.142
L57.8581 52.2173
L61.2399 55.8843
L64.6217 136.97
L68.0035 211.928
L71.3853 217.736
L74.7672 162.073
L78.149 103.816
L81.5308 93.2891
L84.9126 130.77
L88.2944 175.405
L91.6763 187.69
L95.0581 163.03
L98.4399 129.286
L101.822 116.993
L105.204 132.748
L108.585 157.938
L111.967 169.281
L115.349 159.605
L118.731 141.034
L122.113 131.086
L125.494 136.697
L128.876 150.219
L132.258 158.634
L135.64 155.676
L139.022 145.956
L142.404 139.029
L145.785 140.311
L149.167 147.204
L152.549 152.783
L155.931 152.514
L159.313 147.697
L162.694 143.286
L166.076 142.981
L169.458 146.292
L172.84 149.725
L176.222 150.319
L179.604 148.086
L182.985 145.453
L186.367 144.747
L189.749 146.219
L193.131 148.211
L196.513 148.924
L199.894 147.981
L203.276 146.492
L206.658 145.832
L210.04 146.413
L213.422 147.511
L216.804 148.093
L220.185 147.754
L223.567 146.953
L226.949 146.46
L230.331 146.641
L233.713 147.217
L237.094 147.623
L240.476 147.543
L243.858 147.134
L247.24 146.807
L250.622 146.826
L254.004 147.112
L257.385 147.371
L260.767 147.387
L264.149 147.19
L267.531 146.988
L270.913 146.954
L274.294 147.087
L277.676 147.243
L281.058 147.283
L284.44 147.195
L287.822 147.078
L291.204 147.036
L294.585 147.093
L297.967 147.181
L301.349 147.219
L304.731 147.184
L308.113 147.119
L311.494 147.085
L314.876 147.106
L318.258 147.153
L321.64 147.182
L325.022 147.171
L328.404 147.137
L331.785 147.113
L335.167 147.118
L338.549 147.142
L341.931 147.162
L345.313 147.16
L348.694 147.143
L352.076 147.128
L355.458 147.127
L358.84 147.139
L362.222 147.151
L365.604 147.153
L368.985 147.145
L372.367 147.136
L375.749 147.133
L379.131 147.139
L382.513 147.146
L385.894 147.148
L389.276 147.145" style="fill:none;stroke:#e24a33;stroke-dasharray:6.000000,6.000000;stroke-dashoffset:0.0;"/>
   </g>
   <g id="line2d_50">
    <path clip-path="url(#p889f02deec)" d="
M54.4763 147.271
L57.8581 88.5728
L61.2399 48.2952
L64.6217 34.72
L68.0035 49.1095
L71.3853 85.9278
L74.7672 134.675
L78.149 182.774
L81.5308 218.742
L84.9126 234.862
L88.2944 228.748
L91.6763 203.527
L95.0581 166.669
L98.4399 127.88
L101.822 96.602
L105.204 79.774
L108.585 80.3522
L111.967 96.8994
L115.349 124.257
L118.731 155.06
L122.113 181.667
L125.494 198.012
L128.876 200.941
L132.258 190.755
L135.64 170.872
L139.022 146.784
L142.404 124.578
L145.785 109.439
L149.167 104.468
L152.549 110.098
L155.931 124.189
L159.313 142.732
L162.694 160.949
L166.076 174.496
L169.458 180.475
L172.84 178.016
L176.222 168.339
L179.604 154.302
L182.985 139.596
L186.367 127.796
L189.749 121.514
L193.131 121.845
L196.513 128.216
L199.894 138.648
L203.276 150.339
L206.658 160.391
L210.04 166.517
L213.422 167.541
L216.804 163.598
L220.185 156.003
L223.567 146.851
L226.949 138.452
L230.331 132.762
L233.713 130.944
L237.094 133.145
L240.476 138.538
L243.858 145.59
L247.24 152.489
L250.622 157.591
L254.004 159.807
L257.385 158.822
L260.767 155.11
L264.149 149.764
L267.531 144.189
L270.913 139.737
L274.294 137.393
L277.676 137.561
L281.058 140.013
L284.44 143.991
L287.822 148.428
L291.204 152.225
L294.585 154.521
L297.967 154.876
L301.349 153.35
L304.731 150.45
L308.113 146.973
L311.494 143.796
L314.876 141.658
L318.258 140.994
L321.64 141.854
L325.022 143.917
L328.404 146.599
L331.785 149.212
L335.167 151.133
L338.549 151.954
L341.931 151.56
L345.313 150.136
L348.694 148.101
L352.076 145.987
L355.458 144.308
L358.84 143.434
L362.222 143.513
L365.604 144.457
L368.985 145.974
L372.367 147.658
L375.749 149.092
L379.131 149.952
L382.513 150.074
L385.894 149.484
L389.276 148.376" style="fill:none;stroke:#348abd;stroke-linecap:square;"/>
   </g>
   <g id="line2d_51">
    <defs>
     <path d="
M0 3
C0.795609 3 1.55874 2.6839 2.12132 2.12132
C2.6839 1.55874 3 0.795609 3 0
C3 -0.795609 2.6839 -1.55874 2.12132 -2.12132
C1.55874 -2.6839 0.795609 -3 0 -3
C-0.795609 -3 -1.55874 -2.6839 -2.12132 -2.12132
C-2.6839 -1.55874 -3 -0.795609 -3 0
C-3 0.795609 -2.6839 1.55874 -2.12132 2.12132
C-1.55874 2.6839 -0.795609 3 0 3
z
" id="m9f8c851ce8" style="stroke:#000000;stroke-width:0.5;"/>
    </defs>
    <g clip-path="url(#p889f02deec)">
     <use style="fill:#988ed5;stroke:#000000;stroke-width:0.5;" x="54.47625" xlink:href="#m9f8c851ce8" y="136.437867911"/>
     <use style="fill:#988ed5;stroke:#000000;stroke-width:0.5;" x="57.8580681818" xlink:href="#m9f8c851ce8" y="101.82688735"/>
     <use style="fill:#988ed5;stroke:#000000;stroke-width:0.5;" x="61.2398863636" xlink:href="#m9f8c851ce8" y="33.5005546686"/>
     <use style="fill:#988ed5;stroke:#000000;stroke-width:0.5;" x="64.6217045455" xlink:href="#m9f8c851ce8" y="46.6712902815"/>
     <use style="fill:#988ed5;stroke:#000000;stroke-width:0.5;" x="68.0035227273" xlink:href="#m9f8c851ce8" y="27.8085987002"/>
     <use style="fill:#988ed5;stroke:#000000;stroke-width:0.5;" x="71.3853409091" xlink:href="#m9f8c851ce8" y="85.5243939341"/>
     <use style="fill:#988ed5;stroke:#000000;stroke-width:0.5;" x="74.7671590909" xlink:href="#m9f8c851ce8" y="148.456537112"/>
     <use style="fill:#988ed5;stroke:#000000;stroke-width:0.5;" x="78.1489772727" xlink:href="#m9f8c851ce8" y="192.453481077"/>
     <use style="fill:#988ed5;stroke:#000000;stroke-width:0.5;" x="81.5307954545" xlink:href="#m9f8c851ce8" y="209.36638067"/>
     <use style="fill:#988ed5;stroke:#000000;stroke-width:0.5;" x="84.9126136364" xlink:href="#m9f8c851ce8" y="217.896324198"/>
     <use style="fill:#988ed5;stroke:#000000;stroke-width:0.5;" x="88.2944318182" xlink:href="#m9f8c851ce8" y="237.424708159"/>
     <use style="fill:#988ed5;stroke:#000000;stroke-width:0.5;" x="91.67625" xlink:href="#m9f8c851ce8" y="208.491488853"/>
     <use style="fill:#988ed5;stroke:#000000;stroke-width:0.5;" x="95.0580681818" xlink:href="#m9f8c851ce8" y="141.410922574"/>
     <use style="fill:#988ed5;stroke:#000000;stroke-width:0.5;" x="98.4398863636" xlink:href="#m9f8c851ce8" y="140.372540199"/>
     <use style="fill:#988ed5;stroke:#000000;stroke-width:0.5;" x="101.821704545" xlink:href="#m9f8c851ce8" y="111.264092562"/>
     <use style="fill:#988ed5;stroke:#000000;stroke-width:0.5;" x="105.203522727" xlink:href="#m9f8c851ce8" y="90.1537615693"/>
     <use style="fill:#988ed5;stroke:#000000;stroke-width:0.5;" x="108.585340909" xlink:href="#m9f8c851ce8" y="61.8117557644"/>
     <use style="fill:#988ed5;stroke:#000000;stroke-width:0.5;" x="111.967159091" xlink:href="#m9f8c851ce8" y="84.9512067516"/>
     <use style="fill:#988ed5;stroke:#000000;stroke-width:0.5;" x="115.348977273" xlink:href="#m9f8c851ce8" y="151.431713305"/>
     <use style="fill:#988ed5;stroke:#000000;stroke-width:0.5;" x="118.730795455" xlink:href="#m9f8c851ce8" y="154.242739084"/>
     <use style="fill:#988ed5;stroke:#000000;stroke-width:0.5;" x="122.112613636" xlink:href="#m9f8c851ce8" y="161.325769912"/>
     <use style="fill:#988ed5;stroke:#000000;stroke-width:0.5;" x="125.494431818" xlink:href="#m9f8c851ce8" y="185.473218697"/>
     <use style="fill:#988ed5;stroke:#000000;stroke-width:0.5;" x="128.87625" xlink:href="#m9f8c851ce8" y="195.821039027"/>
     <use style="fill:#988ed5;stroke:#000000;stroke-width:0.5;" x="132.258068182" xlink:href="#m9f8c851ce8" y="209.203790719"/>
     <use style="fill:#988ed5;stroke:#000000;stroke-width:0.5;" x="135.639886364" xlink:href="#m9f8c851ce8" y="177.200227952"/>
     <use style="fill:#988ed5;stroke:#000000;stroke-width:0.5;" x="139.021704545" xlink:href="#m9f8c851ce8" y="162.820415659"/>
     <use style="fill:#988ed5;stroke:#000000;stroke-width:0.5;" x="142.403522727" xlink:href="#m9f8c851ce8" y="118.182893403"/>
     <use style="fill:#988ed5;stroke:#000000;stroke-width:0.5;" x="145.785340909" xlink:href="#m9f8c851ce8" y="106.9014097"/>
     <use style="fill:#988ed5;stroke:#000000;stroke-width:0.5;" x="149.167159091" xlink:href="#m9f8c851ce8" y="106.123322789"/>
     <use style="fill:#988ed5;stroke:#000000;stroke-width:0.5;" x="152.548977273" xlink:href="#m9f8c851ce8" y="97.2867232985"/>
     <use style="fill:#988ed5;stroke:#000000;stroke-width:0.5;" x="155.930795455" xlink:href="#m9f8c851ce8" y="104.80378878"/>
     <use style="fill:#988ed5;stroke:#000000;stroke-width:0.5;" x="159.312613636" xlink:href="#m9f8c851ce8" y="167.793069994"/>
     <use style="fill:#988ed5;stroke:#000000;stroke-width:0.5;" x="162.694431818" xlink:href="#m9f8c851ce8" y="151.564649263"/>
     <use style="fill:#988ed5;stroke:#000000;stroke-width:0.5;" x="166.07625" xlink:href="#m9f8c851ce8" y="198.012723372"/>
     <use style="fill:#988ed5;stroke:#000000;stroke-width:0.5;" x="169.458068182" xlink:href="#m9f8c851ce8" y="198.231920225"/>
     <use style="fill:#988ed5;stroke:#000000;stroke-width:0.5;" x="172.839886364" xlink:href="#m9f8c851ce8" y="159.056006788"/>
     <use style="fill:#988ed5;stroke:#000000;stroke-width:0.5;" x="176.221704545" xlink:href="#m9f8c851ce8" y="161.325140281"/>
     <use style="fill:#988ed5;stroke:#000000;stroke-width:0.5;" x="179.603522727" xlink:href="#m9f8c851ce8" y="146.103092636"/>
     <use style="fill:#988ed5;stroke:#000000;stroke-width:0.5;" x="182.985340909" xlink:href="#m9f8c851ce8" y="145.385936425"/>
     <use style="fill:#988ed5;stroke:#000000;stroke-width:0.5;" x="186.367159091" xlink:href="#m9f8c851ce8" y="126.77030129"/>
     <use style="fill:#988ed5;stroke:#000000;stroke-width:0.5;" x="189.748977273" xlink:href="#m9f8c851ce8" y="108.100989218"/>
     <use style="fill:#988ed5;stroke:#000000;stroke-width:0.5;" x="193.130795455" xlink:href="#m9f8c851ce8" y="137.555474928"/>
     <use style="fill:#988ed5;stroke:#000000;stroke-width:0.5;" x="196.512613636" xlink:href="#m9f8c851ce8" y="148.073451037"/>
     <use style="fill:#988ed5;stroke:#000000;stroke-width:0.5;" x="199.894431818" xlink:href="#m9f8c851ce8" y="137.068446998"/>
     <use style="fill:#988ed5;stroke:#000000;stroke-width:0.5;" x="203.27625" xlink:href="#m9f8c851ce8" y="130.946699311"/>
     <use style="fill:#988ed5;stroke:#000000;stroke-width:0.5;" x="206.658068182" xlink:href="#m9f8c851ce8" y="148.378473323"/>
     <use style="fill:#988ed5;stroke:#000000;stroke-width:0.5;" x="210.039886364" xlink:href="#m9f8c851ce8" y="182.360343874"/>
     <use style="fill:#988ed5;stroke:#000000;stroke-width:0.5;" x="213.421704545" xlink:href="#m9f8c851ce8" y="187.519376831"/>
     <use style="fill:#988ed5;stroke:#000000;stroke-width:0.5;" x="216.803522727" xlink:href="#m9f8c851ce8" y="164.497009989"/>
     <use style="fill:#988ed5;stroke:#000000;stroke-width:0.5;" x="220.185340909" xlink:href="#m9f8c851ce8" y="148.860817017"/>
     <use style="fill:#988ed5;stroke:#000000;stroke-width:0.5;" x="223.567159091" xlink:href="#m9f8c851ce8" y="134.302567719"/>
     <use style="fill:#988ed5;stroke:#000000;stroke-width:0.5;" x="226.948977273" xlink:href="#m9f8c851ce8" y="150.221277519"/>
     <use style="fill:#988ed5;stroke:#000000;stroke-width:0.5;" x="230.330795455" xlink:href="#m9f8c851ce8" y="131.919513858"/>
     <use style="fill:#988ed5;stroke:#000000;stroke-width:0.5;" x="233.712613636" xlink:href="#m9f8c851ce8" y="114.523267116"/>
     <use style="fill:#988ed5;stroke:#000000;stroke-width:0.5;" x="237.094431818" xlink:href="#m9f8c851ce8" y="121.052535108"/>
     <use style="fill:#988ed5;stroke:#000000;stroke-width:0.5;" x="240.47625" xlink:href="#m9f8c851ce8" y="158.672976364"/>
     <use style="fill:#988ed5;stroke:#000000;stroke-width:0.5;" x="243.858068182" xlink:href="#m9f8c851ce8" y="138.126187234"/>
     <use style="fill:#988ed5;stroke:#000000;stroke-width:0.5;" x="247.239886364" xlink:href="#m9f8c851ce8" y="129.797134255"/>
     <use style="fill:#988ed5;stroke:#000000;stroke-width:0.5;" x="250.621704545" xlink:href="#m9f8c851ce8" y="156.92320747"/>
     <use style="fill:#988ed5;stroke:#000000;stroke-width:0.5;" x="254.003522727" xlink:href="#m9f8c851ce8" y="139.762182969"/>
     <use style="fill:#988ed5;stroke:#000000;stroke-width:0.5;" x="257.385340909" xlink:href="#m9f8c851ce8" y="173.517767601"/>
     <use style="fill:#988ed5;stroke:#000000;stroke-width:0.5;" x="260.767159091" xlink:href="#m9f8c851ce8" y="158.820474505"/>
     <use style="fill:#988ed5;stroke:#000000;stroke-width:0.5;" x="264.148977273" xlink:href="#m9f8c851ce8" y="129.74988716"/>
     <use style="fill:#988ed5;stroke:#000000;stroke-width:0.5;" x="267.530795455" xlink:href="#m9f8c851ce8" y="122.030876544"/>
     <use style="fill:#988ed5;stroke:#000000;stroke-width:0.5;" x="270.912613636" xlink:href="#m9f8c851ce8" y="148.84179641"/>
     <use style="fill:#988ed5;stroke:#000000;stroke-width:0.5;" x="274.294431818" xlink:href="#m9f8c851ce8" y="121.426693994"/>
     <use style="fill:#988ed5;stroke:#000000;stroke-width:0.5;" x="277.67625" xlink:href="#m9f8c851ce8" y="130.31890068"/>
     <use style="fill:#988ed5;stroke:#000000;stroke-width:0.5;" x="281.058068182" xlink:href="#m9f8c851ce8" y="136.250965524"/>
     <use style="fill:#988ed5;stroke:#000000;stroke-width:0.5;" x="284.439886364" xlink:href="#m9f8c851ce8" y="122.98031073"/>
     <use style="fill:#988ed5;stroke:#000000;stroke-width:0.5;" x="287.821704545" xlink:href="#m9f8c851ce8" y="165.365366513"/>
     <use style="fill:#988ed5;stroke:#000000;stroke-width:0.5;" x="291.203522727" xlink:href="#m9f8c851ce8" y="155.340092039"/>
     <use style="fill:#988ed5;stroke:#000000;stroke-width:0.5;" x="294.585340909" xlink:href="#m9f8c851ce8" y="146.951146962"/>
     <use style="fill:#988ed5;stroke:#000000;stroke-width:0.5;" x="297.967159091" xlink:href="#m9f8c851ce8" y="175.084424343"/>
     <use style="fill:#988ed5;stroke:#000000;stroke-width:0.5;" x="301.348977273" xlink:href="#m9f8c851ce8" y="129.239764009"/>
     <use style="fill:#988ed5;stroke:#000000;stroke-width:0.5;" x="304.730795455" xlink:href="#m9f8c851ce8" y="164.115102898"/>
     <use style="fill:#988ed5;stroke:#000000;stroke-width:0.5;" x="308.112613636" xlink:href="#m9f8c851ce8" y="161.765799087"/>
     <use style="fill:#988ed5;stroke:#000000;stroke-width:0.5;" x="311.494431818" xlink:href="#m9f8c851ce8" y="153.990988333"/>
     <use style="fill:#988ed5;stroke:#000000;stroke-width:0.5;" x="314.87625" xlink:href="#m9f8c851ce8" y="155.610369471"/>
     <use style="fill:#988ed5;stroke:#000000;stroke-width:0.5;" x="318.258068182" xlink:href="#m9f8c851ce8" y="147.891272058"/>
     <use style="fill:#988ed5;stroke:#000000;stroke-width:0.5;" x="321.639886364" xlink:href="#m9f8c851ce8" y="124.536872105"/>
     <use style="fill:#988ed5;stroke:#000000;stroke-width:0.5;" x="325.021704545" xlink:href="#m9f8c851ce8" y="157.453111322"/>
     <use style="fill:#988ed5;stroke:#000000;stroke-width:0.5;" x="328.403522727" xlink:href="#m9f8c851ce8" y="163.791876245"/>
     <use style="fill:#988ed5;stroke:#000000;stroke-width:0.5;" x="331.785340909" xlink:href="#m9f8c851ce8" y="139.514769172"/>
     <use style="fill:#988ed5;stroke:#000000;stroke-width:0.5;" x="335.167159091" xlink:href="#m9f8c851ce8" y="128.769759127"/>
     <use style="fill:#988ed5;stroke:#000000;stroke-width:0.5;" x="338.548977273" xlink:href="#m9f8c851ce8" y="128.896255038"/>
     <use style="fill:#988ed5;stroke:#000000;stroke-width:0.5;" x="341.930795455" xlink:href="#m9f8c851ce8" y="166.296128751"/>
     <use style="fill:#988ed5;stroke:#000000;stroke-width:0.5;" x="345.312613636" xlink:href="#m9f8c851ce8" y="131.757179203"/>
     <use style="fill:#988ed5;stroke:#000000;stroke-width:0.5;" x="348.694431818" xlink:href="#m9f8c851ce8" y="141.432289898"/>
     <use style="fill:#988ed5;stroke:#000000;stroke-width:0.5;" x="352.07625" xlink:href="#m9f8c851ce8" y="128.568911354"/>
     <use style="fill:#988ed5;stroke:#000000;stroke-width:0.5;" x="355.458068182" xlink:href="#m9f8c851ce8" y="156.385206241"/>
     <use style="fill:#988ed5;stroke:#000000;stroke-width:0.5;" x="358.839886364" xlink:href="#m9f8c851ce8" y="129.046620935"/>
     <use style="fill:#988ed5;stroke:#000000;stroke-width:0.5;" x="362.221704545" xlink:href="#m9f8c851ce8" y="164.421601689"/>
     <use style="fill:#988ed5;stroke:#000000;stroke-width:0.5;" x="365.603522727" xlink:href="#m9f8c851ce8" y="143.035868719"/>
     <use style="fill:#988ed5;stroke:#000000;stroke-width:0.5;" x="368.985340909" xlink:href="#m9f8c851ce8" y="157.460312679"/>
     <use style="fill:#988ed5;stroke:#000000;stroke-width:0.5;" x="372.367159091" xlink:href="#m9f8c851ce8" y="157.604463062"/>
     <use style="fill:#988ed5;stroke:#000000;stroke-width:0.5;" x="375.748977273" xlink:href="#m9f8c851ce8" y="160.599340417"/>
     <use style="fill:#988ed5;stroke:#000000;stroke-width:0.5;" x="379.130795455" xlink:href="#m9f8c851ce8" y="151.408697641"/>
     <use style="fill:#988ed5;stroke:#000000;stroke-width:0.5;" x="382.512613636" xlink:href="#m9f8c851ce8" y="133.902938717"/>
     <use style="fill:#988ed5;stroke:#000000;stroke-width:0.5;" x="385.894431818" xlink:href="#m9f8c851ce8" y="148.887978311"/>
     <use style="fill:#988ed5;stroke:#000000;stroke-width:0.5;" x="389.27625" xlink:href="#m9f8c851ce8" y="126.116699196"/>
    </g>
   </g>
   <g id="patch_3">
    <path d="
M54.4763 23.1418
L389.276 23.1418" style="fill:none;stroke:#ffffff;stroke-linecap:square;stroke-linejoin:miter;"/>
   </g>
   <g id="patch_4">
    <path d="
M54.4763 246.342
L54.4763 23.1417" style="fill:none;stroke:#ffffff;stroke-linecap:square;stroke-linejoin:miter;"/>
   </g>
   <g id="patch_5">
    <path d="
M54.4763 246.342
L389.276 246.342" style="fill:none;stroke:#ffffff;stroke-linecap:square;stroke-linejoin:miter;"/>
   </g>
   <g id="patch_6">
    <path d="
M389.276 246.342
L389.276 23.1417" style="fill:none;stroke:#ffffff;stroke-linecap:square;stroke-linejoin:miter;"/>
   </g>
   <g id="text_19">
    <!-- Model(_eval) -->
    <defs>
     <path d="
M2.98438 54.6875
L12.5 54.6875
L29.5938 8.79688
L46.6875 54.6875
L56.2031 54.6875
L35.6875 0
L23.4844 0
z
" id="DejaVuSans-76"/>
     <path d="
M45.4062 46.3906
L45.4062 75.9844
L54.3906 75.9844
L54.3906 0
L45.4062 0
L45.4062 8.20312
Q42.5781 3.32812 38.25 0.953125
Q33.9375 -1.42188 27.875 -1.42188
Q17.9688 -1.42188 11.7344 6.48438
Q5.51562 14.4062 5.51562 27.2969
Q5.51562 40.1875 11.7344 48.0938
Q17.9688 56 27.875 56
Q33.9375 56 38.25 53.625
Q42.5781 51.2656 45.4062 46.3906
M14.7969 27.2969
Q14.7969 17.3906 18.875 11.75
Q22.9531 6.10938 30.0781 6.10938
Q37.2031 6.10938 41.2969 11.75
Q45.4062 17.3906 45.4062 27.2969
Q45.4062 37.2031 41.2969 42.8438
Q37.2031 48.4844 30.0781 48.4844
Q22.9531 48.4844 18.875 42.8438
Q14.7969 37.2031 14.7969 27.2969" id="DejaVuSans-64"/>
     <path d="
M30.6094 48.3906
Q23.3906 48.3906 19.1875 42.75
Q14.9844 37.1094 14.9844 27.2969
Q14.9844 17.4844 19.1562 11.8438
Q23.3438 6.20312 30.6094 6.20312
Q37.7969 6.20312 41.9844 11.8594
Q46.1875 17.5312 46.1875 27.2969
Q46.1875 37.0156 41.9844 42.7031
Q37.7969 48.3906 30.6094 48.3906
M30.6094 56
Q42.3281 56 49.0156 48.375
Q55.7188 40.7656 55.7188 27.2969
Q55.7188 13.875 49.0156 6.21875
Q42.3281 -1.42188 30.6094 -1.42188
Q18.8438 -1.42188 12.1719 6.21875
Q5.51562 13.875 5.51562 27.2969
Q5.51562 40.7656 12.1719 48.375
Q18.8438 56 30.6094 56" id="DejaVuSans-6f"/>
     <path d="
M8.01562 75.875
L15.8281 75.875
Q23.1406 64.3594 26.7812 53.3125
Q30.4219 42.2812 30.4219 31.3906
Q30.4219 20.4531 26.7812 9.375
Q23.1406 -1.70312 15.8281 -13.1875
L8.01562 -13.1875
Q14.5 -2 17.7031 9.0625
Q20.9062 20.125 20.9062 31.3906
Q20.9062 42.6719 17.7031 53.6562
Q14.5 64.6562 8.01562 75.875" id="DejaVuSans-29"/>
     <path d="
M34.2812 27.4844
Q23.3906 27.4844 19.1875 25
Q14.9844 22.5156 14.9844 16.5
Q14.9844 11.7188 18.1406 8.90625
Q21.2969 6.10938 26.7031 6.10938
Q34.1875 6.10938 38.7031 11.4062
Q43.2188 16.7031 43.2188 25.4844
L43.2188 27.4844
z

M52.2031 31.2031
L52.2031 0
L43.2188 0
L43.2188 8.29688
Q40.1406 3.32812 35.5469 0.953125
Q30.9531 -1.42188 24.3125 -1.42188
Q15.9219 -1.42188 10.9531 3.29688
Q6 8.01562 6 15.9219
Q6 25.1406 12.1719 29.8281
Q18.3594 34.5156 30.6094 34.5156
L43.2188 34.5156
L43.2188 35.4062
Q43.2188 41.6094 39.1406 45
Q35.0625 48.3906 27.6875 48.3906
Q23 48.3906 18.5469 47.2656
Q14.1094 46.1406 10.0156 43.8906
L10.0156 52.2031
Q14.9375 54.1094 19.5781 55.0469
Q24.2188 56 28.6094 56
Q40.4844 56 46.3438 49.8438
Q52.2031 43.7031 52.2031 31.2031" id="DejaVuSans-61"/>
     <path d="
M50.9844 -16.6094
L50.9844 -23.5781
L-0.984375 -23.5781
L-0.984375 -16.6094
z
" id="DejaVuSans-5f"/>
     <path d="
M56.2031 29.5938
L56.2031 25.2031
L14.8906 25.2031
Q15.4844 15.9219 20.4844 11.0625
Q25.4844 6.20312 34.4219 6.20312
Q39.5938 6.20312 44.4531 7.46875
Q49.3125 8.73438 54.1094 11.2812
L54.1094 2.78125
Q49.2656 0.734375 44.1875 -0.34375
Q39.1094 -1.42188 33.8906 -1.42188
Q20.7969 -1.42188 13.1562 6.1875
Q5.51562 13.8125 5.51562 26.8125
Q5.51562 40.2344 12.7656 48.1094
Q20.0156 56 32.3281 56
Q43.3594 56 49.7812 48.8906
Q56.2031 41.7969 56.2031 29.5938
M47.2188 32.2344
Q47.125 39.5938 43.0938 43.9844
Q39.0625 48.3906 32.4219 48.3906
Q24.9062 48.3906 20.3906 44.1406
Q15.875 39.8906 15.1875 32.1719
z
" id="DejaVuSans-65"/>
     <path d="
M9.42188 75.9844
L18.4062 75.9844
L18.4062 0
L9.42188 0
z
" id="DejaVuSans-6c"/>
     <path d="
M9.8125 72.9062
L24.5156 72.9062
L43.1094 23.2969
L61.8125 72.9062
L76.5156 72.9062
L76.5156 0
L66.8906 0
L66.8906 64.0156
L48.0938 14.0156
L38.1875 14.0156
L19.3906 64.0156
L19.3906 0
L9.8125 0
z
" id="DejaVuSans-4d"/>
     <path d="
M31 75.875
Q24.4688 64.6562 21.2812 53.6562
Q18.1094 42.6719 18.1094 31.3906
Q18.1094 20.125 21.3125 9.0625
Q24.5156 -2 31 -13.1875
L23.1875 -13.1875
Q15.875 -1.70312 12.2344 9.375
Q8.59375 20.4531 8.59375 31.3906
Q8.59375 42.2812 12.2031 53.3125
Q15.8281 64.3594 23.1875 75.875
z
" id="DejaVuSans-28"/>
    </defs>
    <g transform="translate(177.259875 18.14175)scale(0.144 -0.144)">
     <use xlink:href="#DejaVuSans-4d"/>
     <use x="86.279296875" xlink:href="#DejaVuSans-6f"/>
     <use x="147.4609375" xlink:href="#DejaVuSans-64"/>
     <use x="210.9375" xlink:href="#DejaVuSans-65"/>
     <use x="272.4609375" xlink:href="#DejaVuSans-6c"/>
     <use x="300.244140625" xlink:href="#DejaVuSans-28"/>
     <use x="339.2578125" xlink:href="#DejaVuSans-5f"/>
     <use x="389.2578125" xlink:href="#DejaVuSans-65"/>
     <use x="450.78125" xlink:href="#DejaVuSans-76"/>
     <use x="509.9609375" xlink:href="#DejaVuSans-61"/>
     <use x="571.240234375" xlink:href="#DejaVuSans-6c"/>
     <use x="599.0234375" xlink:href="#DejaVuSans-29"/>
    </g>
   </g>
   <g id="legend_1">
    <g id="patch_7">
     <path d="
M298.903 85.583
L383.276 85.583
L383.276 29.1417
L298.903 29.1417
z
" style="fill:#e5e5e5;stroke:#ffffff;stroke-linejoin:miter;stroke-width:0.5;"/>
    </g>
    <g id="line2d_52">
     <path d="
M307.303 38.8599
L324.103 38.8599" style="fill:none;stroke:#e24a33;stroke-dasharray:6.000000,6.000000;stroke-dashoffset:0.0;"/>
    </g>
    <g id="line2d_53"/>
    <g id="text_20">
     <!-- init -->
     <defs>
      <path d="
M54.8906 33.0156
L54.8906 0
L45.9062 0
L45.9062 32.7188
Q45.9062 40.4844 42.875 44.3281
Q39.8438 48.1875 33.7969 48.1875
Q26.5156 48.1875 22.3125 43.5469
Q18.1094 38.9219 18.1094 30.9062
L18.1094 0
L9.07812 0
L9.07812 54.6875
L18.1094 54.6875
L18.1094 46.1875
Q21.3438 51.125 25.7031 53.5625
Q30.0781 56 35.7969 56
Q45.2188 56 50.0469 50.1719
Q54.8906 44.3438 54.8906 33.0156" id="DejaVuSans-6e"/>
      <path d="
M9.42188 54.6875
L18.4062 54.6875
L18.4062 0
L9.42188 0
z

M9.42188 75.9844
L18.4062 75.9844
L18.4062 64.5938
L9.42188 64.5938
z
" id="DejaVuSans-69"/>
      <path d="
M18.3125 70.2188
L18.3125 54.6875
L36.8125 54.6875
L36.8125 47.7031
L18.3125 47.7031
L18.3125 18.0156
Q18.3125 11.3281 20.1406 9.42188
Q21.9688 7.51562 27.5938 7.51562
L36.8125 7.51562
L36.8125 0
L27.5938 0
Q17.1875 0 13.2344 3.875
Q9.28125 7.76562 9.28125 18.0156
L9.28125 47.7031
L2.6875 47.7031
L2.6875 54.6875
L9.28125 54.6875
L9.28125 70.2188
z
" id="DejaVuSans-74"/>
     </defs>
     <g transform="translate(337.303125 43.059875)scale(0.12 -0.12)">
      <use xlink:href="#DejaVuSans-69"/>
      <use x="27.783203125" xlink:href="#DejaVuSans-6e"/>
      <use x="91.162109375" xlink:href="#DejaVuSans-69"/>
      <use x="118.9453125" xlink:href="#DejaVuSans-74"/>
     </g>
    </g>
    <g id="line2d_54">
     <path d="
M307.303 56.4736
L324.103 56.4736" style="fill:none;stroke:#348abd;stroke-linecap:square;"/>
    </g>
    <g id="line2d_55"/>
    <g id="text_21">
     <!-- best-fit -->
     <defs>
      <path d="
M48.6875 27.2969
Q48.6875 37.2031 44.6094 42.8438
Q40.5312 48.4844 33.4062 48.4844
Q26.2656 48.4844 22.1875 42.8438
Q18.1094 37.2031 18.1094 27.2969
Q18.1094 17.3906 22.1875 11.75
Q26.2656 6.10938 33.4062 6.10938
Q40.5312 6.10938 44.6094 11.75
Q48.6875 17.3906 48.6875 27.2969
M18.1094 46.3906
Q20.9531 51.2656 25.2656 53.625
Q29.5938 56 35.5938 56
Q45.5625 56 51.7812 48.0938
Q58.0156 40.1875 58.0156 27.2969
Q58.0156 14.4062 51.7812 6.48438
Q45.5625 -1.42188 35.5938 -1.42188
Q29.5938 -1.42188 25.2656 0.953125
Q20.9531 3.32812 18.1094 8.20312
L18.1094 0
L9.07812 0
L9.07812 75.9844
L18.1094 75.9844
z
" id="DejaVuSans-62"/>
      <path d="
M37.1094 75.9844
L37.1094 68.5
L28.5156 68.5
Q23.6875 68.5 21.7969 66.5469
Q19.9219 64.5938 19.9219 59.5156
L19.9219 54.6875
L34.7188 54.6875
L34.7188 47.7031
L19.9219 47.7031
L19.9219 0
L10.8906 0
L10.8906 47.7031
L2.29688 47.7031
L2.29688 54.6875
L10.8906 54.6875
L10.8906 58.5
Q10.8906 67.625 15.1406 71.7969
Q19.3906 75.9844 28.6094 75.9844
z
" id="DejaVuSans-66"/>
      <path d="
M44.2812 53.0781
L44.2812 44.5781
Q40.4844 46.5312 36.375 47.5
Q32.2812 48.4844 27.875 48.4844
Q21.1875 48.4844 17.8438 46.4375
Q14.5 44.3906 14.5 40.2812
Q14.5 37.1562 16.8906 35.375
Q19.2812 33.5938 26.5156 31.9844
L29.5938 31.2969
Q39.1562 29.25 43.1875 25.5156
Q47.2188 21.7812 47.2188 15.0938
Q47.2188 7.46875 41.1875 3.01562
Q35.1562 -1.42188 24.6094 -1.42188
Q20.2188 -1.42188 15.4531 -0.5625
Q10.6875 0.296875 5.42188 2
L5.42188 11.2812
Q10.4062 8.6875 15.2344 7.39062
Q20.0625 6.10938 24.8125 6.10938
Q31.1562 6.10938 34.5625 8.28125
Q37.9844 10.4531 37.9844 14.4062
Q37.9844 18.0625 35.5156 20.0156
Q33.0625 21.9688 24.7031 23.7812
L21.5781 24.5156
Q13.2344 26.2656 9.51562 29.9062
Q5.8125 33.5469 5.8125 39.8906
Q5.8125 47.6094 11.2812 51.7969
Q16.75 56 26.8125 56
Q31.7812 56 36.1719 55.2656
Q40.5781 54.5469 44.2812 53.0781" id="DejaVuSans-73"/>
      <path d="
M4.89062 31.3906
L31.2031 31.3906
L31.2031 23.3906
L4.89062 23.3906
z
" id="DejaVuSans-2d"/>
     </defs>
     <g transform="translate(337.303125 60.673625)scale(0.12 -0.12)">
      <use xlink:href="#DejaVuSans-62"/>
      <use x="63.4765625" xlink:href="#DejaVuSans-65"/>
      <use x="125.0" xlink:href="#DejaVuSans-73"/>
      <use x="177.099609375" xlink:href="#DejaVuSans-74"/>
      <use x="216.30859375" xlink:href="#DejaVuSans-2d"/>
      <use x="252.392578125" xlink:href="#DejaVuSans-66"/>
      <use x="287.59765625" xlink:href="#DejaVuSans-69"/>
      <use x="315.380859375" xlink:href="#DejaVuSans-74"/>
     </g>
    </g>
    <g id="line2d_56"/>
    <g id="line2d_57">
     <g>
      <use style="fill:#988ed5;stroke:#000000;stroke-width:0.5;" x="307.303125" xlink:href="#m9f8c851ce8" y="74.087375"/>
      <use style="fill:#988ed5;stroke:#000000;stroke-width:0.5;" x="324.103125" xlink:href="#m9f8c851ce8" y="74.087375"/>
     </g>
    </g>
    <g id="text_22">
     <!-- data -->
     <g transform="translate(337.303125 78.287375)scale(0.12 -0.12)">
      <use xlink:href="#DejaVuSans-64"/>
      <use x="63.4765625" xlink:href="#DejaVuSans-61"/>
      <use x="124.755859375" xlink:href="#DejaVuSans-74"/>
      <use x="163.96484375" xlink:href="#DejaVuSans-61"/>
     </g>
    </g>
   </g>
  </g>
 </g>
 <defs>
  <clipPath id="p889f02deec">
   <rect height="223.2" width="334.8" x="54.47625" y="23.14175"/>
  </clipPath>
 </defs>
</svg>
